<mxfile host="app.diagrams.net" modified="2023-06-21T16:47:03.083Z" agent="Mozilla/5.0 (Windows NT 10.0; Win64; x64) AppleWebKit/537.36 (KHTML, like Gecko) Chrome/114.0.0.0 Safari/537.36" etag="h-wVkaaAc-_Jz0vWzLSM" version="21.4.0" type="device">
  <diagram name="Page-1" id="2YBvvXClWsGukQMizWep">
    <mxGraphModel dx="2049" dy="1086" grid="1" gridSize="10" guides="1" tooltips="1" connect="1" arrows="1" fold="1" page="1" pageScale="1" pageWidth="850" pageHeight="1100" math="0" shadow="0">
      <root>
        <mxCell id="0" />
        <mxCell id="1" parent="0" />
        <mxCell id="aM9ryv3xv72pqoxQDRHE-1" value="Controller" style="shape=umlLifeline;perimeter=lifelinePerimeter;whiteSpace=wrap;html=1;container=0;dropTarget=0;collapsible=0;recursiveResize=0;outlineConnect=0;portConstraint=eastwest;newEdgeStyle={&quot;edgeStyle&quot;:&quot;elbowEdgeStyle&quot;,&quot;elbow&quot;:&quot;vertical&quot;,&quot;curved&quot;:0,&quot;rounded&quot;:0};" parent="1" vertex="1">
          <mxGeometry x="50" y="40" width="100" height="430" as="geometry" />
        </mxCell>
        <mxCell id="aM9ryv3xv72pqoxQDRHE-2" value="" style="html=1;points=[];perimeter=orthogonalPerimeter;outlineConnect=0;targetShapes=umlLifeline;portConstraint=eastwest;newEdgeStyle={&quot;edgeStyle&quot;:&quot;elbowEdgeStyle&quot;,&quot;elbow&quot;:&quot;vertical&quot;,&quot;curved&quot;:0,&quot;rounded&quot;:0};" parent="aM9ryv3xv72pqoxQDRHE-1" vertex="1">
          <mxGeometry x="45" y="70" width="10" height="320" as="geometry" />
        </mxCell>
        <mxCell id="aM9ryv3xv72pqoxQDRHE-3" value="Usuario" style="html=1;verticalAlign=bottom;startArrow=oval;endArrow=block;startSize=8;edgeStyle=elbowEdgeStyle;elbow=vertical;curved=0;rounded=0;" parent="aM9ryv3xv72pqoxQDRHE-1" target="aM9ryv3xv72pqoxQDRHE-2" edge="1">
          <mxGeometry relative="1" as="geometry">
            <mxPoint x="-15" y="70" as="sourcePoint" />
          </mxGeometry>
        </mxCell>
        <mxCell id="LqsI-rOXUMGuYAvuFEgq-1" value="" style="html=1;points=[];perimeter=orthogonalPerimeter;outlineConnect=0;targetShapes=umlLifeline;portConstraint=eastwest;newEdgeStyle={&quot;edgeStyle&quot;:&quot;elbowEdgeStyle&quot;,&quot;elbow&quot;:&quot;vertical&quot;,&quot;curved&quot;:0,&quot;rounded&quot;:0};" vertex="1" parent="1">
          <mxGeometry x="270" y="130" width="10" height="120" as="geometry" />
        </mxCell>
        <mxCell id="LqsI-rOXUMGuYAvuFEgq-2" value="New User" style="html=1;verticalAlign=bottom;endArrow=block;edgeStyle=elbowEdgeStyle;elbow=vertical;curved=0;rounded=0;" edge="1" target="LqsI-rOXUMGuYAvuFEgq-1" parent="1" source="aM9ryv3xv72pqoxQDRHE-2">
          <mxGeometry x="0.0031" relative="1" as="geometry">
            <mxPoint x="110" y="120.07000000000001" as="sourcePoint" />
            <Array as="points">
              <mxPoint x="140" y="130" />
            </Array>
            <mxPoint as="offset" />
          </mxGeometry>
        </mxCell>
        <mxCell id="LqsI-rOXUMGuYAvuFEgq-3" value="UserResponse" style="html=1;verticalAlign=bottom;endArrow=open;dashed=1;endSize=8;edgeStyle=elbowEdgeStyle;elbow=vertical;curved=0;rounded=0;" edge="1" source="LqsI-rOXUMGuYAvuFEgq-1" parent="1">
          <mxGeometry y="-10" relative="1" as="geometry">
            <mxPoint x="110" y="240" as="targetPoint" />
            <Array as="points">
              <mxPoint x="170" y="240" />
            </Array>
            <mxPoint as="offset" />
          </mxGeometry>
        </mxCell>
        <mxCell id="LqsI-rOXUMGuYAvuFEgq-7" value="" style="html=1;points=[];perimeter=orthogonalPerimeter;outlineConnect=0;targetShapes=umlLifeline;portConstraint=eastwest;newEdgeStyle={&quot;edgeStyle&quot;:&quot;elbowEdgeStyle&quot;,&quot;elbow&quot;:&quot;vertical&quot;,&quot;curved&quot;:0,&quot;rounded&quot;:0};" vertex="1" parent="1">
          <mxGeometry x="270" y="290" width="10" height="110" as="geometry" />
        </mxCell>
        <mxCell id="LqsI-rOXUMGuYAvuFEgq-8" value="Login" style="html=1;verticalAlign=bottom;endArrow=block;edgeStyle=elbowEdgeStyle;elbow=vertical;curved=0;rounded=0;" edge="1" target="LqsI-rOXUMGuYAvuFEgq-7" parent="1" source="aM9ryv3xv72pqoxQDRHE-2">
          <mxGeometry x="-0.0909" y="10" relative="1" as="geometry">
            <mxPoint x="110" y="250" as="sourcePoint" />
            <Array as="points">
              <mxPoint x="180" y="290" />
            </Array>
            <mxPoint as="offset" />
          </mxGeometry>
        </mxCell>
        <mxCell id="LqsI-rOXUMGuYAvuFEgq-9" value="User" style="html=1;verticalAlign=bottom;endArrow=open;dashed=1;endSize=8;edgeStyle=elbowEdgeStyle;elbow=vertical;curved=0;rounded=0;" edge="1" source="LqsI-rOXUMGuYAvuFEgq-7" parent="1" target="aM9ryv3xv72pqoxQDRHE-2">
          <mxGeometry relative="1" as="geometry">
            <mxPoint x="110" y="370" as="targetPoint" />
            <Array as="points">
              <mxPoint x="150" y="390" />
            </Array>
          </mxGeometry>
        </mxCell>
        <mxCell id="LqsI-rOXUMGuYAvuFEgq-11" value="Service" style="shape=umlLifeline;perimeter=lifelinePerimeter;whiteSpace=wrap;html=1;container=0;dropTarget=0;collapsible=0;recursiveResize=0;outlineConnect=0;portConstraint=eastwest;newEdgeStyle={&quot;edgeStyle&quot;:&quot;elbowEdgeStyle&quot;,&quot;elbow&quot;:&quot;vertical&quot;,&quot;curved&quot;:0,&quot;rounded&quot;:0};" vertex="1" parent="1">
          <mxGeometry x="225" y="40" width="100" height="430" as="geometry" />
        </mxCell>
        <mxCell id="LqsI-rOXUMGuYAvuFEgq-14" value="Database h2" style="shape=umlLifeline;perimeter=lifelinePerimeter;whiteSpace=wrap;html=1;container=0;dropTarget=0;collapsible=0;recursiveResize=0;outlineConnect=0;portConstraint=eastwest;newEdgeStyle={&quot;edgeStyle&quot;:&quot;elbowEdgeStyle&quot;,&quot;elbow&quot;:&quot;vertical&quot;,&quot;curved&quot;:0,&quot;rounded&quot;:0};" vertex="1" parent="1">
          <mxGeometry x="400" y="40" width="100" height="430" as="geometry" />
        </mxCell>
        <mxCell id="LqsI-rOXUMGuYAvuFEgq-17" value="" style="html=1;points=[];perimeter=orthogonalPerimeter;outlineConnect=0;targetShapes=umlLifeline;portConstraint=eastwest;newEdgeStyle={&quot;edgeStyle&quot;:&quot;elbowEdgeStyle&quot;,&quot;elbow&quot;:&quot;vertical&quot;,&quot;curved&quot;:0,&quot;rounded&quot;:0};" vertex="1" parent="LqsI-rOXUMGuYAvuFEgq-14">
          <mxGeometry x="45" y="110" width="10" height="80" as="geometry" />
        </mxCell>
        <mxCell id="LqsI-rOXUMGuYAvuFEgq-20" value="" style="html=1;points=[];perimeter=orthogonalPerimeter;outlineConnect=0;targetShapes=umlLifeline;portConstraint=eastwest;newEdgeStyle={&quot;edgeStyle&quot;:&quot;elbowEdgeStyle&quot;,&quot;elbow&quot;:&quot;vertical&quot;,&quot;curved&quot;:0,&quot;rounded&quot;:0};" vertex="1" parent="LqsI-rOXUMGuYAvuFEgq-14">
          <mxGeometry x="45" y="265" width="10" height="80" as="geometry" />
        </mxCell>
        <mxCell id="LqsI-rOXUMGuYAvuFEgq-18" value="Save" style="html=1;verticalAlign=bottom;endArrow=block;edgeStyle=elbowEdgeStyle;elbow=vertical;curved=0;rounded=0;" edge="1" target="LqsI-rOXUMGuYAvuFEgq-17" parent="1">
          <mxGeometry relative="1" as="geometry">
            <mxPoint x="280" y="150.1" as="sourcePoint" />
          </mxGeometry>
        </mxCell>
        <mxCell id="LqsI-rOXUMGuYAvuFEgq-19" value="UserResponse" style="html=1;verticalAlign=bottom;endArrow=open;dashed=1;endSize=8;edgeStyle=elbowEdgeStyle;elbow=vertical;curved=0;rounded=0;" edge="1" source="LqsI-rOXUMGuYAvuFEgq-17" parent="1">
          <mxGeometry relative="1" as="geometry">
            <mxPoint x="280" y="225.1" as="targetPoint" />
          </mxGeometry>
        </mxCell>
        <mxCell id="LqsI-rOXUMGuYAvuFEgq-21" value="FinByName" style="html=1;verticalAlign=bottom;endArrow=block;edgeStyle=elbowEdgeStyle;elbow=vertical;curved=0;rounded=0;" edge="1" target="LqsI-rOXUMGuYAvuFEgq-20" parent="1">
          <mxGeometry relative="1" as="geometry">
            <mxPoint x="280" y="310" as="sourcePoint" />
          </mxGeometry>
        </mxCell>
        <mxCell id="LqsI-rOXUMGuYAvuFEgq-22" value="User" style="html=1;verticalAlign=bottom;endArrow=open;dashed=1;endSize=8;edgeStyle=elbowEdgeStyle;elbow=vertical;curved=0;rounded=0;" edge="1" source="LqsI-rOXUMGuYAvuFEgq-20" parent="1">
          <mxGeometry relative="1" as="geometry">
            <mxPoint x="280" y="385" as="targetPoint" />
          </mxGeometry>
        </mxCell>
      </root>
    </mxGraphModel>
  </diagram>
</mxfile>
